<svg xmlns="http://www.w3.org/2000/svg" width="80mm" height="46mm" viewBox="0 0 80 46" role="img"><title>Barra repartidora bipolar 80A (8 puestos)</title><desc>Barra repartidora bipolar 80A (8 puestos), 80 x 46 mm, dibujo generico sin marca</desc><rect x="0.25" y="0.25" width="79.5" height="45.5" rx="1.5" fill="#E8E9EA" stroke="#B5BBC4" stroke-width="0.5"/><rect x="0.2" y="3.27" width="79.6" height="4.5" rx="1" fill="#C97B3D" stroke="#9E5A25" stroke-width="0.4"/><circle cx="3.2" cy="5.52" r="2.6" fill="#6B727D"/><line x1="1.6" y1="5.52" x2="4.8" y2="5.52" stroke="#D9DCE1" stroke-width="0.6" stroke-linecap="round"/><circle cx="13.71" cy="5.52" r="2.6" fill="#6B727D"/><line x1="12.11" y1="5.52" x2="15.31" y2="5.52" stroke="#D9DCE1" stroke-width="0.6" stroke-linecap="round"/><circle cx="24.23" cy="5.52" r="2.6" fill="#6B727D"/><line x1="22.63" y1="5.52" x2="25.83" y2="5.52" stroke="#D9DCE1" stroke-width="0.6" stroke-linecap="round"/><circle cx="34.74" cy="5.52" r="2.6" fill="#6B727D"/><line x1="33.14" y1="5.52" x2="36.34" y2="5.52" stroke="#D9DCE1" stroke-width="0.6" stroke-linecap="round"/><circle cx="45.26" cy="5.52" r="2.6" fill="#6B727D"/><line x1="43.66" y1="5.52" x2="46.86" y2="5.52" stroke="#D9DCE1" stroke-width="0.6" stroke-linecap="round"/><circle cx="55.77" cy="5.52" r="2.6" fill="#6B727D"/><line x1="54.17" y1="5.52" x2="57.37" y2="5.52" stroke="#D9DCE1" stroke-width="0.6" stroke-linecap="round"/><circle cx="66.29" cy="5.52" r="2.6" fill="#6B727D"/><line x1="64.69" y1="5.52" x2="67.89" y2="5.52" stroke="#D9DCE1" stroke-width="0.6" stroke-linecap="round"/><circle cx="76.8" cy="5.52" r="2.6" fill="#6B727D"/><line x1="75.2" y1="5.52" x2="78.4" y2="5.52" stroke="#D9DCE1" stroke-width="0.6" stroke-linecap="round"/><rect x="0.2" y="38.23" width="79.6" height="4.5" rx="1" fill="#C97B3D" stroke="#9E5A25" stroke-width="0.4"/><circle cx="3.2" cy="40.48" r="2.6" fill="#6B727D"/><line x1="1.6" y1="40.48" x2="4.8" y2="40.48" stroke="#D9DCE1" stroke-width="0.6" stroke-linecap="round"/><circle cx="13.71" cy="40.48" r="2.6" fill="#6B727D"/><line x1="12.11" y1="40.48" x2="15.31" y2="40.48" stroke="#D9DCE1" stroke-width="0.6" stroke-linecap="round"/><circle cx="24.23" cy="40.48" r="2.6" fill="#6B727D"/><line x1="22.63" y1="40.48" x2="25.83" y2="40.48" stroke="#D9DCE1" stroke-width="0.6" stroke-linecap="round"/><circle cx="34.74" cy="40.48" r="2.6" fill="#6B727D"/><line x1="33.14" y1="40.48" x2="36.34" y2="40.48" stroke="#D9DCE1" stroke-width="0.6" stroke-linecap="round"/><circle cx="45.26" cy="40.48" r="2.6" fill="#6B727D"/><line x1="43.66" y1="40.48" x2="46.86" y2="40.48" stroke="#D9DCE1" stroke-width="0.6" stroke-linecap="round"/><circle cx="55.77" cy="40.48" r="2.6" fill="#6B727D"/><line x1="54.17" y1="40.48" x2="57.37" y2="40.48" stroke="#D9DCE1" stroke-width="0.6" stroke-linecap="round"/><circle cx="66.29" cy="40.48" r="2.6" fill="#6B727D"/><line x1="64.69" y1="40.48" x2="67.89" y2="40.48" stroke="#D9DCE1" stroke-width="0.6" stroke-linecap="round"/><circle cx="76.8" cy="40.48" r="2.6" fill="#6B727D"/><line x1="75.2" y1="40.48" x2="78.4" y2="40.48" stroke="#D9DCE1" stroke-width="0.6" stroke-linecap="round"/></svg>