<svg xmlns="http://www.w3.org/2000/svg" width="45mm" height="85mm" viewBox="0 0 45 85" role="img"><title>Contactor 3P (industrial)</title><desc>Contactor 3P (industrial), 45 x 85 mm, dibujo generico sin marca</desc><rect x="0.25" y="0.25" width="44.5" height="84.5" rx="1.5" fill="#3B414A" stroke="#23272E" stroke-width="0.5"/><rect x="1.5" y="2" width="42" height="9" fill="#9BA2AD"/><rect x="1.5" y="74" width="42" height="9" fill="#9BA2AD"/><circle cx="7.5" cy="6.5" r="2.6" fill="#6B727D"/><line x1="5.9" y1="6.5" x2="9.1" y2="6.5" stroke="#D9DCE1" stroke-width="0.6" stroke-linecap="round"/><circle cx="7.5" cy="78.5" r="2.6" fill="#6B727D"/><line x1="5.9" y1="78.5" x2="9.1" y2="78.5" stroke="#D9DCE1" stroke-width="0.6" stroke-linecap="round"/><circle cx="22.5" cy="6.5" r="2.6" fill="#6B727D"/><line x1="20.9" y1="6.5" x2="24.1" y2="6.5" stroke="#D9DCE1" stroke-width="0.6" stroke-linecap="round"/><circle cx="22.5" cy="78.5" r="2.6" fill="#6B727D"/><line x1="20.9" y1="78.5" x2="24.1" y2="78.5" stroke="#D9DCE1" stroke-width="0.6" stroke-linecap="round"/><circle cx="37.5" cy="6.5" r="2.6" fill="#6B727D"/><line x1="35.9" y1="6.5" x2="39.1" y2="6.5" stroke="#D9DCE1" stroke-width="0.6" stroke-linecap="round"/><circle cx="37.5" cy="78.5" r="2.6" fill="#6B727D"/><line x1="35.9" y1="78.5" x2="39.1" y2="78.5" stroke="#D9DCE1" stroke-width="0.6" stroke-linecap="round"/><rect x="3" y="24" width="39" height="26" rx="1" fill="#E6E8EC"/><rect x="16.5" y="56" width="12" height="6" rx="1.5" fill="#D0D4DA"/></svg>