<svg xmlns="http://www.w3.org/2000/svg" width="72mm" height="90mm" viewBox="0 0 72 90" role="img"><title>Portafusible de riel 10 x 38 4P</title><desc>Portafusible de riel 10 x 38 4P, 72 x 90 mm, dibujo generico sin marca</desc><rect x="0.25" y="0.25" width="71.5" height="89.5" rx="1.5" fill="#F1F2F4" stroke="#B5BBC4" stroke-width="0.5"/><rect x="1.5" y="2" width="69" height="9" fill="#9BA2AD"/><rect x="1.5" y="79" width="69" height="9" fill="#9BA2AD"/><circle cx="9" cy="6.5" r="2.6" fill="#6B727D"/><line x1="7.4" y1="6.5" x2="10.6" y2="6.5" stroke="#D9DCE1" stroke-width="0.6" stroke-linecap="round"/><circle cx="9" cy="83.5" r="2.6" fill="#6B727D"/><line x1="7.4" y1="83.5" x2="10.6" y2="83.5" stroke="#D9DCE1" stroke-width="0.6" stroke-linecap="round"/><circle cx="27" cy="6.5" r="2.6" fill="#6B727D"/><line x1="25.4" y1="6.5" x2="28.6" y2="6.5" stroke="#D9DCE1" stroke-width="0.6" stroke-linecap="round"/><circle cx="27" cy="83.5" r="2.6" fill="#6B727D"/><line x1="25.4" y1="83.5" x2="28.6" y2="83.5" stroke="#D9DCE1" stroke-width="0.6" stroke-linecap="round"/><circle cx="45" cy="6.5" r="2.6" fill="#6B727D"/><line x1="43.4" y1="6.5" x2="46.6" y2="6.5" stroke="#D9DCE1" stroke-width="0.6" stroke-linecap="round"/><circle cx="45" cy="83.5" r="2.6" fill="#6B727D"/><line x1="43.4" y1="83.5" x2="46.6" y2="83.5" stroke="#D9DCE1" stroke-width="0.6" stroke-linecap="round"/><circle cx="63" cy="6.5" r="2.6" fill="#6B727D"/><line x1="61.4" y1="6.5" x2="64.6" y2="6.5" stroke="#D9DCE1" stroke-width="0.6" stroke-linecap="round"/><circle cx="63" cy="83.5" r="2.6" fill="#6B727D"/><line x1="61.4" y1="83.5" x2="64.6" y2="83.5" stroke="#D9DCE1" stroke-width="0.6" stroke-linecap="round"/><rect x="2.5" y="15" width="67" height="14" rx="1" fill="#FFFFFF" stroke="#D3D7DD" stroke-width="0.4"/><rect x="3" y="33" width="12" height="31" rx="1.5" fill="#E6E8EC" stroke="#B5BBC4" stroke-width="0.4"/><line x1="3" y1="37" x2="15" y2="37" stroke="#B5BBC4" stroke-width="0.5" stroke-linecap="round"/><line x1="5" y1="56" x2="13" y2="56" stroke="#B5BBC4" stroke-width="0.5" stroke-linecap="round"/><line x1="5" y1="59" x2="13" y2="59" stroke="#B5BBC4" stroke-width="0.5" stroke-linecap="round"/><line x1="5" y1="62" x2="13" y2="62" stroke="#B5BBC4" stroke-width="0.5" stroke-linecap="round"/><rect x="21" y="33" width="12" height="31" rx="1.5" fill="#E6E8EC" stroke="#B5BBC4" stroke-width="0.4"/><line x1="21" y1="37" x2="33" y2="37" stroke="#B5BBC4" stroke-width="0.5" stroke-linecap="round"/><line x1="23" y1="56" x2="31" y2="56" stroke="#B5BBC4" stroke-width="0.5" stroke-linecap="round"/><line x1="23" y1="59" x2="31" y2="59" stroke="#B5BBC4" stroke-width="0.5" stroke-linecap="round"/><line x1="23" y1="62" x2="31" y2="62" stroke="#B5BBC4" stroke-width="0.5" stroke-linecap="round"/><rect x="39" y="33" width="12" height="31" rx="1.5" fill="#E6E8EC" stroke="#B5BBC4" stroke-width="0.4"/><line x1="39" y1="37" x2="51" y2="37" stroke="#B5BBC4" stroke-width="0.5" stroke-linecap="round"/><line x1="41" y1="56" x2="49" y2="56" stroke="#B5BBC4" stroke-width="0.5" stroke-linecap="round"/><line x1="41" y1="59" x2="49" y2="59" stroke="#B5BBC4" stroke-width="0.5" stroke-linecap="round"/><line x1="41" y1="62" x2="49" y2="62" stroke="#B5BBC4" stroke-width="0.5" stroke-linecap="round"/><rect x="57" y="33" width="12" height="31" rx="1.5" fill="#E6E8EC" stroke="#B5BBC4" stroke-width="0.4"/><line x1="57" y1="37" x2="69" y2="37" stroke="#B5BBC4" stroke-width="0.5" stroke-linecap="round"/><line x1="59" y1="56" x2="67" y2="56" stroke="#B5BBC4" stroke-width="0.5" stroke-linecap="round"/><line x1="59" y1="59" x2="67" y2="59" stroke="#B5BBC4" stroke-width="0.5" stroke-linecap="round"/><line x1="59" y1="62" x2="67" y2="62" stroke="#B5BBC4" stroke-width="0.5" stroke-linecap="round"/></svg>