<svg xmlns="http://www.w3.org/2000/svg" width="10.5mm" height="54mm" viewBox="0 0 10.5 54" role="img"><title>Regleta de conexion 8 vias</title><desc>Regleta de conexion 8 vias, 10.5 x 54 mm, dibujo generico sin marca</desc><rect x="0.25" y="0.25" width="10" height="53.5" rx="1.5" fill="#E8E9EA" stroke="#B5BBC4" stroke-width="0.5"/><rect x="3" y="0.24" width="4.5" height="53.52" rx="1" fill="#C97B3D" stroke="#9E5A25" stroke-width="0.4"/><circle cx="5.25" cy="3.24" r="2" fill="#6B727D"/><line x1="4.05" y1="3.24" x2="6.45" y2="3.24" stroke="#D9DCE1" stroke-width="0.5" stroke-linecap="round"/><circle cx="5.25" cy="10.03" r="2" fill="#6B727D"/><line x1="4.05" y1="10.03" x2="6.45" y2="10.03" stroke="#D9DCE1" stroke-width="0.5" stroke-linecap="round"/><circle cx="5.25" cy="16.82" r="2" fill="#6B727D"/><line x1="4.05" y1="16.82" x2="6.45" y2="16.82" stroke="#D9DCE1" stroke-width="0.5" stroke-linecap="round"/><circle cx="5.25" cy="23.61" r="2" fill="#6B727D"/><line x1="4.05" y1="23.61" x2="6.45" y2="23.61" stroke="#D9DCE1" stroke-width="0.5" stroke-linecap="round"/><circle cx="5.25" cy="30.39" r="2" fill="#6B727D"/><line x1="4.05" y1="30.39" x2="6.45" y2="30.39" stroke="#D9DCE1" stroke-width="0.5" stroke-linecap="round"/><circle cx="5.25" cy="37.18" r="2" fill="#6B727D"/><line x1="4.05" y1="37.18" x2="6.45" y2="37.18" stroke="#D9DCE1" stroke-width="0.5" stroke-linecap="round"/><circle cx="5.25" cy="43.97" r="2" fill="#6B727D"/><line x1="4.05" y1="43.97" x2="6.45" y2="43.97" stroke="#D9DCE1" stroke-width="0.5" stroke-linecap="round"/><circle cx="5.25" cy="50.76" r="2" fill="#6B727D"/><line x1="4.05" y1="50.76" x2="6.45" y2="50.76" stroke="#D9DCE1" stroke-width="0.5" stroke-linecap="round"/></svg>